<svg width="32" height="32" xmlns="http://www.w3.org/2000/svg">

 <g>
  <title>background</title>
  <rect fill="#000000" id="canvas_background" height="34" width="34" y="-1" x="-1"/>
 </g>
 <g>
  <title>Layer 1</title>
  <path canvas="#4c4c4c" canvas-opacity="1" stroke="#000000" id="svg_1" fill-rule="evenodd" fill="#ffffff" d="m16.003,0c-8.833,0 -15.995,7.336189 -15.995,16.386068c0,7.238879 4.582,13.380709 10.94,15.548173c0.8,0.149551 1.052,-0.335977 1.052,-0.77029c0,-0.389242 0.008,-1.477071 0,-2.84454c-4.449,0.990519 -5.371,-2.158245 -5.371,-2.158245c-0.727,-1.892946 -1.775,-2.396912 -1.775,-2.396912c-1.452,-1.016127 0.109,-0.996665 0.109,-0.996665c1.605,0.115748 2.451,1.689106 2.451,1.689106c1.427,2.502417 3.743,1.779246 4.654,1.361323c0.146,-1.059148 0.56,-1.781295 1.017,-2.191023c-3.552,-0.413826 -7.286,-1.819195 -7.286,-8.098284c0,-1.789489 0.623,-3.251196 1.646,-4.396387c-0.165,-0.413826 -0.715,-2.080397 0.157,-4.336976c0,0 1.343,-0.440458 4.398,1.680911c1.276,-0.363634 2.645,-0.544939 4.005,-0.551085c1.359,0.006146 2.727,0.187451 4.005,0.551085c3.055,-2.120345 4.396,-1.680911 4.396,-1.680911c0.872,2.25658 0.323,3.923151 0.159,4.336976c1.023,1.145191 1.644,2.606898 1.644,4.396387c0,6.295479 -3.74,7.680361 -7.304,8.084968c0.574,0.507039 1.095,1.490388 1.095,3.018675c0,2.048643 0,3.996902 0,4.535695c0,0.43841 0.258,0.922914 1.07,0.764144c6.352,-2.170537 10.93,-8.309295 10.93,-15.546125c0,-9.049879 -7.162,-16.386068 -15.997,-16.386068z" clip-rule="evenodd"/>
 </g>
</svg>